<svg xmlns:dc="http://purl.org/dc/elements/1.1/" xmlns:cc="http://creativecommons.org/ns#" xmlns:rdf="http://www.w3.org/1999/02/22-rdf-syntax-ns#" xmlns:svg="http://www.w3.org/2000/svg" xmlns="http://www.w3.org/2000/svg" xmlns:xlink="http://www.w3.org/1999/xlink" id="svg151100" viewBox="0 0 1024 768" height="768px" width="1024px" version="1.1">
  <metadata id="metadata151106">
    <rdf:rdf>
      <cc:work rdf:about="">
        <dc:format>image/svg+xml</dc:format>
        <dc:type rdf:resource="http://purl.org/dc/dcmitype/StillImage"/>
      </cc:work>
    </rdf:rdf>
  </metadata>
  <defs id="defs151104"/>
  <linearGradient spreadMethod="pad" y2="30%" x2="-10%" y1="120%" x1="30%" id="3d_gradient2-logo-5b2539a5-5f63-49fc-8e78-9e05359ac8bf">
    <stop id="stop151081" stop-opacity="1" stop-color="#ffffff" offset="0%"/>
    <stop id="stop151083" stop-opacity="1" stop-color="#000000" offset="100%"/>
  </linearGradient>
  <linearGradient gradientTransform="rotate(-30)" spreadMethod="pad" y2="30%" x2="-10%" y1="120%" x1="30%" id="3d_gradient3-logo-5b2539a5-5f63-49fc-8e78-9e05359ac8bf">
    <stop id="stop151086" stop-opacity="1" stop-color="#ffffff" offset="0%"/>
    <stop id="stop151088" stop-opacity="1" stop-color="#cccccc" offset="50%"/>
    <stop id="stop151090" stop-opacity="1" stop-color="#000000" offset="100%"/>
  </linearGradient>
  <g id="logo-group">
    <image xlink:href="" id="container" x="272" y="144" width="480" height="480" transform="translate(0 0)" style="display: none;"/>
    <g id="logo-center" transform="translate(0 0)">
      <image xlink:href="" id="icon_container" x="0" y="0" style="display: none;"/>
      <g id="slogan" style="font-style:normal;font-weight:600;font-size:32px;line-height:1;font-family:Raleway;font-variant-ligatures:none;text-align:center;text-anchor:middle" transform="translate(0 0)">
        <path id="path151108" style="font-style:normal;font-weight:600;font-size:32px;line-height:1;font-family:Raleway;font-variant-ligatures:none;text-align:center;text-anchor:middle" d="m 357.34275,-22.624 h 3.392 l 2.784,7.712 2.816,-7.712 h 3.36 l -3.872,10.112 3.392,8.352 7.072,-18.56 h 3.936 L 370.84675,0 h -3.072 l -4.224,-10.176 -4.256,10.176 h -3.072 l -9.376,-22.72 h 3.904 l 7.104,18.56 3.392,-8.352 z" stroke-width="0" stroke-linejoin="miter" stroke-miterlimit="2" fill="#80a260" stroke="#80a260" transform="translate(1.1368683772161603e-13 361.21200000000005) translate(385.4530625 60.864000000000004) scale(0.75) translate(-346.84675 22.72)"/>
        <path id="path151110" style="font-style:normal;font-weight:600;font-size:32px;line-height:1;font-family:Raleway;font-variant-ligatures:none;text-align:center;text-anchor:middle" d="M 398.48775,-3.168 V 0 h -15.584 v -22.72 h 15.296 v 3.168 h -11.712 v 6.464 h 10.144 v 2.976 h -10.144 v 6.944 z" stroke-width="0" stroke-linejoin="miter" stroke-miterlimit="2" fill="#80a260" stroke="#80a260" transform="translate(1.1368683772161603e-13 361.21200000000005) translate(413.2458125 60.864000000000004) scale(0.75) translate(-382.90375 22.72)"/>
        <path id="path151112" style="font-style:normal;font-weight:600;font-size:32px;line-height:1;font-family:Raleway;font-variant-ligatures:none;text-align:center;text-anchor:middle" d="m 420.07225,-5.856 q 0,1.376 -0.576,2.464 -0.544,1.088 -1.504,1.856 -0.928,0.736 -2.208,1.152 -1.28,0.384 -2.72,0.384 h -10.848 v -22.72 h 11.712 q 1.184,0 2.144,0.512 0.96,0.512 1.632,1.344 0.672,0.8 1.024,1.856 0.384,1.024 0.384,2.08 0,1.664 -0.864,3.136 -0.832,1.44 -2.4,2.144 1.952,0.576 3.072,2.112 1.152,1.504 1.152,3.68 z m -3.68,-0.672 q 0,-0.704 -0.256,-1.344 -0.224,-0.64 -0.64,-1.12 -0.384,-0.48 -0.96,-0.768 -0.576,-0.288 -1.248,-0.288 h -7.488 v 6.944 h 7.264 q 0.704,0 1.312,-0.256 0.608,-0.288 1.056,-0.736 0.448,-0.48 0.704,-1.088 0.256,-0.64 0.256,-1.344 z m -10.592,-13.088 v 6.688 h 6.592 q 0.672,0 1.216,-0.256 0.576,-0.256 0.992,-0.672 0.448,-0.448 0.672,-1.056 0.256,-0.608 0.256,-1.344 0,-1.472 -0.832,-2.4 -0.832,-0.96 -2.112,-0.96 z" stroke-width="0" stroke-linejoin="miter" stroke-miterlimit="2" fill="#80a260" stroke="#80a260" transform="translate(1.1368683772161603e-13 361.21200000000005) translate(428.4801875 60.864000000000004) scale(0.75) translate(-402.21625 22.72)"/>
        <path id="path151114" style="font-style:normal;font-weight:600;font-size:32px;line-height:1;font-family:Raleway;font-variant-ligatures:none;text-align:center;text-anchor:middle" d="m 444.96125,-16.64 -2.368,0.992 c 1.024,1.44 1.696,2.688 2.496,4.448 l 2.432,-1.088 c -0.608,-1.28 -1.792,-3.2 -2.56,-4.352 z m 3.584,-1.472 -2.336,1.088 c 1.024,1.408 1.76,2.592 2.624,4.32 l 2.4,-1.152 c -0.672,-1.248 -1.888,-3.136 -2.688,-4.256 z m -24.928,-3.776 0.416,4.352 c 3.68,-0.8 10.336,-1.504 13.088,-1.792 -2.144,1.6 -4.672,5.184 -4.672,9.76 0,6.88 6.272,10.464 12.928,10.88 l 1.472,-4.384 c -5.376,-0.256 -10.24,-2.144 -10.24,-7.36 0,-3.744 2.848,-7.84 6.688,-8.864 1.696,-0.384 4.416,-0.416 6.112,-0.416 l -0.032,-4.096 c -2.24,0.096 -5.696,0.288 -8.96,0.544 -5.792,0.512 -11.04,0.992 -13.696,1.216 -0.608,0.064 -1.824,0.128 -3.104,0.16 z" stroke-width="0" stroke-linejoin="miter" stroke-miterlimit="2" fill="#80a260" stroke="#80a260" transform="translate(1.1368683772161603e-13 361.21200000000005) translate(445.2809375 60.048) scale(0.75) translate(-423.61725 23.808)"/>
        <path id="path151116" style="font-style:normal;font-weight:600;font-size:32px;line-height:1;font-family:Raleway;font-variant-ligatures:none;text-align:center;text-anchor:middle" d="m 458.84925,-10.144 c -0.512,1.824 -0.896,3.808 -0.896,5.216 0,4.416 3.424,6.816 9.792,6.816 4.16,0 6.784,-0.448 8.544,-0.768 l 0.096,-4.192 c -2.304,0.448 -4.224,0.896 -8.64,0.896 -4.48,0 -5.664,-1.536 -5.664,-3.84 0,-0.928 0.48,-2.752 0.896,-3.808 z m 16.896,-15.328 c 0.672,0.928 1.408,2.272 1.984,3.424 -1.408,0.416 -2.88,0.768 -4.416,1.056 -0.704,-1.664 -1.312,-3.168 -1.824,-4.832 l -4.512,0.864 c 0.704,1.12 0.992,1.76 1.568,3.04 l 0.672,1.504 c -3.36,0.32 -7.296,0.256 -11.84,-0.32 l 0.128,4.064 c 5.024,0.416 9.472,0.416 13.376,0 0.896,1.984 2.016,4.16 2.752,5.76 -0.96,-0.064 -2.656,-0.224 -3.744,-0.32 l -0.352,3.264 c 2.368,0.288 5.504,0.768 7.2,1.12 l 2.24,-2.368 c -1.376,-2.528 -2.88,-5.536 -4.064,-8.096 1.888,-0.384 3.744,-0.832 5.376,-1.28 l -0.576,-3.072 1.088,-0.48 c -0.576,-1.184 -1.728,-3.2 -2.528,-4.384 z m 3.808,-1.376 c 0.896,1.216 1.92,3.072 2.592,4.416 l 2.528,-1.12 c -0.576,-1.12 -1.76,-3.136 -2.592,-4.352 z" stroke-width="0" stroke-linejoin="miter" stroke-miterlimit="2" fill="#80a260" stroke="#80a260" transform="translate(1.1368683772161603e-13 361.21200000000005) translate(471.3509375 56.976) scale(0.75) translate(-457.37725 27.904)"/>
        <path id="path151118" style="font-style:normal;font-weight:600;font-size:32px;line-height:1;font-family:Raleway;font-variant-ligatures:none;text-align:center;text-anchor:middle" d="m 493.66525,-22.784 -4.864,-0.064 c 0.192,0.96 0.224,2.304 0.224,3.2 0,1.952 0.064,5.632 0.352,8.544 0.896,8.512 3.936,11.648 7.392,11.648 2.56,0 4.544,-1.952 6.656,-7.456 l -3.2,-3.84 c -0.608,2.496 -1.856,6.208 -3.36,6.208 -1.984,0 -2.944,-3.104 -3.392,-7.68 -0.192,-2.272 -0.224,-4.672 -0.192,-6.72 0,-0.864 0.16,-2.72 0.384,-3.84 z m 15.84,0.672 -4.032,1.344 c 3.456,3.904 5.152,11.36 5.632,16.448 l 4.192,-1.6 c -0.352,-4.864 -2.784,-12.512 -5.792,-16.192 z" stroke-width="0" stroke-linejoin="miter" stroke-miterlimit="2" fill="#80a260" stroke="#80a260" transform="translate(1.1368683772161603e-13 361.21200000000005) translate(495.66893749999997 60.768) scale(0.75) translate(-488.80125 22.848)"/>
        <path id="path151120" style="font-style:normal;font-weight:600;font-size:32px;line-height:1;font-family:Raleway;font-variant-ligatures:none;text-align:center;text-anchor:middle" d="m 547.48925,-17.472 c -1.6,-1.152 -5.536,-3.296 -7.808,-4.288 l -2.048,3.136 c 2.176,0.96 5.792,3.04 7.616,4.512 z m -11.936,-4.864 c -1.248,0.384 -2.72,0.736 -4.256,0.992 0.448,-1.696 0.832,-3.296 1.088,-4.32 l -4.384,-0.448 c -0.064,1.632 -0.416,3.552 -0.864,5.312 -0.96,0.064 -1.92,0.096 -2.848,0.096 -1.152,0 -2.848,-0.064 -4.224,-0.224 l 0.288,3.712 c 1.376,0.064 2.656,0.096 3.968,0.096 0.544,0 1.088,0 1.632,-0.032 -1.408,3.424 -3.904,8.096 -6.464,11.2 l 3.872,1.952 c 2.56,-3.616 5.28,-9.12 6.784,-13.568 2.112,-0.288 4.064,-0.704 5.504,-1.088 z m 0.768,17.632 c 0,1.696 -0.704,2.944 -2.848,2.944 -1.728,0 -2.72,-0.8 -2.72,-1.984 0,-1.12 1.184,-1.888 3.008,-1.888 0.896,0 1.728,0.128 2.56,0.32 z m -0.512,-11.104 c 0.096,1.92 0.256,4.704 0.352,7.072 -0.672,-0.064 -1.408,-0.128 -2.144,-0.128 -4.416,0 -7.008,2.4 -7.008,5.504 0,3.488 3.104,5.248 7.04,5.248 4.512,0 6.112,-2.304 6.112,-5.248 v -0.288 c 1.728,1.056 3.168,2.336 4.288,3.36 l 2.112,-3.392 c -1.6,-1.44 -3.84,-3.04 -6.56,-4.064 -0.096,-1.568 -0.16,-3.104 -0.192,-4 -0.032,-1.408 -0.096,-2.72 0,-4.064 z" stroke-width="0" stroke-linejoin="miter" stroke-miterlimit="2" fill="#80a260" stroke="#80a260" transform="translate(1.1368683772161603e-13 361.21200000000005) translate(519.4349374999999 58.32) scale(0.75) translate(-519.48925 26.112)"/>
        <path id="path151122" style="font-style:normal;font-weight:600;font-size:32px;line-height:1;font-family:Raleway;font-variant-ligatures:none;text-align:center;text-anchor:middle" d="m 564.51325,-6.368 c -0.16,-1.248 -0.256,-2.624 -0.256,-4.16 0.96,-0.288 2.08,-0.512 3.36,-0.544 -0.832,1.952 -1.92,3.488 -3.104,4.704 z m -5.44,3.232 c -0.832,0 -1.184,-0.448 -1.184,-1.184 0,-1.6 1.312,-3.424 3.072,-4.672 0.064,1.76 0.256,3.52 0.544,5.088 -0.896,0.512 -1.76,0.768 -2.432,0.768 z m 9.728,-12.256 c -0.032,0.32 -0.128,0.896 -0.256,1.44 h -0.448 c -1.248,0 -2.528,0.16 -3.712,0.416 0.032,-0.704 0.128,-1.408 0.192,-2.112 3.264,-0.16 6.816,-0.512 9.28,-0.928 l -0.032,-3.264 c -2.784,0.64 -5.76,0.992 -8.832,1.152 0.096,-0.512 0.192,-0.96 0.256,-1.376 0.128,-0.544 0.224,-1.024 0.384,-1.504 l -3.872,-0.064 c 0.032,0.416 0,1.12 -0.064,1.6 l -0.16,1.44 h -1.088 c -1.312,0 -3.84,-0.256 -4.736,-0.384 l 0.096,3.232 c 1.184,0.096 3.264,0.224 4.64,0.224 h 0.768 c -0.096,0.992 -0.192,2.048 -0.224,3.168 -3.52,1.728 -6.4,5.088 -6.4,8.672 0,2.912 1.728,3.872 3.808,3.872 1.216,0 2.56,-0.384 3.808,-0.992 0.128,0.352 0.224,0.672 0.32,0.992 l 3.296,-0.96 c -0.192,-0.64 -0.384,-1.28 -0.576,-1.984 2.176,-1.792 4.064,-4.352 5.44,-7.84 1.696,0.672 2.56,1.984 2.56,3.488 0,2.624 -1.984,5.088 -7.072,5.664 l 1.92,3.008 c 6.464,-1.12 8.736,-4.768 8.736,-8.352 0,-3.104 -1.952,-5.6 -5.152,-6.624 0.16,-0.48 0.32,-0.96 0.416,-1.184 z" stroke-width="0" stroke-linejoin="miter" stroke-miterlimit="2" fill="#80a260" stroke="#80a260" transform="translate(1.1368683772161603e-13 361.21200000000005) translate(546.5129374999999 61.67999999999999) scale(0.75) translate(-554.59325 21.632)"/>
        <path id="path151124" style="font-style:normal;font-weight:600;font-size:32px;line-height:1;font-family:Raleway;font-variant-ligatures:none;text-align:center;text-anchor:middle" d="m 596.51325,-6.368 c -0.16,-1.248 -0.256,-2.624 -0.256,-4.16 0.96,-0.288 2.08,-0.512 3.36,-0.544 -0.832,1.952 -1.92,3.488 -3.104,4.704 z m -5.44,3.232 c -0.832,0 -1.184,-0.448 -1.184,-1.184 0,-1.6 1.312,-3.424 3.072,-4.672 0.064,1.76 0.256,3.52 0.544,5.088 -0.896,0.512 -1.76,0.768 -2.432,0.768 z m 9.728,-12.256 c -0.032,0.32 -0.128,0.896 -0.256,1.44 h -0.448 c -1.248,0 -2.528,0.16 -3.712,0.416 0.032,-0.704 0.128,-1.408 0.192,-2.112 3.264,-0.16 6.816,-0.512 9.28,-0.928 l -0.032,-3.264 c -2.784,0.64 -5.76,0.992 -8.832,1.152 0.096,-0.512 0.192,-0.96 0.256,-1.376 0.128,-0.544 0.224,-1.024 0.384,-1.504 l -3.872,-0.064 c 0.032,0.416 0,1.12 -0.064,1.6 l -0.16,1.44 h -1.088 c -1.312,0 -3.84,-0.256 -4.736,-0.384 l 0.096,3.232 c 1.184,0.096 3.264,0.224 4.64,0.224 h 0.768 c -0.096,0.992 -0.192,2.048 -0.224,3.168 -3.52,1.728 -6.4,5.088 -6.4,8.672 0,2.912 1.728,3.872 3.808,3.872 1.216,0 2.56,-0.384 3.808,-0.992 0.128,0.352 0.224,0.672 0.32,0.992 l 3.296,-0.96 c -0.192,-0.64 -0.384,-1.28 -0.576,-1.984 2.176,-1.792 4.064,-4.352 5.44,-7.84 1.696,0.672 2.56,1.984 2.56,3.488 0,2.624 -1.984,5.088 -7.072,5.664 l 1.92,3.008 c 6.464,-1.12 8.736,-4.768 8.736,-8.352 0,-3.104 -1.952,-5.6 -5.152,-6.624 0.16,-0.48 0.32,-0.96 0.416,-1.184 z" stroke-width="0" stroke-linejoin="miter" stroke-miterlimit="2" fill="#80a260" stroke="#80a260" transform="translate(1.1368683772161603e-13 361.21200000000005) translate(571.2629374999999 61.67999999999999) scale(0.75) translate(-586.59325 21.632)"/>
        <path id="path151126" style="font-style:normal;font-weight:600;font-size:32px;line-height:1;font-family:Raleway;font-variant-ligatures:none;text-align:center;text-anchor:middle" d="m 628.51325,-6.368 c -0.16,-1.248 -0.256,-2.624 -0.256,-4.16 0.96,-0.288 2.08,-0.512 3.36,-0.544 -0.832,1.952 -1.92,3.488 -3.104,4.704 z m -5.44,3.232 c -0.832,0 -1.184,-0.448 -1.184,-1.184 0,-1.6 1.312,-3.424 3.072,-4.672 0.064,1.76 0.256,3.52 0.544,5.088 -0.896,0.512 -1.76,0.768 -2.432,0.768 z m 9.728,-12.256 c -0.032,0.32 -0.128,0.896 -0.256,1.44 h -0.448 c -1.248,0 -2.528,0.16 -3.712,0.416 0.032,-0.704 0.128,-1.408 0.192,-2.112 3.264,-0.16 6.816,-0.512 9.28,-0.928 l -0.032,-3.264 c -2.784,0.64 -5.76,0.992 -8.832,1.152 0.096,-0.512 0.192,-0.96 0.256,-1.376 0.128,-0.544 0.224,-1.024 0.384,-1.504 l -3.872,-0.064 c 0.032,0.416 0,1.12 -0.064,1.6 l -0.16,1.44 h -1.088 c -1.312,0 -3.84,-0.256 -4.736,-0.384 l 0.096,3.232 c 1.184,0.096 3.264,0.224 4.64,0.224 h 0.768 c -0.096,0.992 -0.192,2.048 -0.224,3.168 -3.52,1.728 -6.4,5.088 -6.4,8.672 0,2.912 1.728,3.872 3.808,3.872 1.216,0 2.56,-0.384 3.808,-0.992 0.128,0.352 0.224,0.672 0.32,0.992 l 3.296,-0.96 c -0.192,-0.64 -0.384,-1.28 -0.576,-1.984 2.176,-1.792 4.064,-4.352 5.44,-7.84 1.696,0.672 2.56,1.984 2.56,3.488 0,2.624 -1.984,5.088 -7.072,5.664 l 1.92,3.008 c 6.464,-1.12 8.736,-4.768 8.736,-8.352 0,-3.104 -1.952,-5.6 -5.152,-6.624 0.16,-0.48 0.32,-0.96 0.416,-1.184 z" stroke-width="0" stroke-linejoin="miter" stroke-miterlimit="2" fill="#80a260" stroke="#80a260" transform="translate(1.1368683772161603e-13 361.21200000000005) translate(596.0129374999999 61.67999999999999) scale(0.75) translate(-618.59325 21.632)"/>
        <path id="path151128" style="font-style:normal;font-weight:600;font-size:32px;line-height:1;font-family:Raleway;font-variant-ligatures:none;text-align:center;text-anchor:middle" d="m 648.22525,-9.792 c 1.184,-0.096 3.328,-0.16 5.152,-0.16 h 17.184 c 1.344,0 2.976,0.128 3.744,0.16 v -5.024 c -0.832,0.064 -2.272,0.192 -3.744,0.192 h -17.184 c -1.664,0 -4,-0.096 -5.152,-0.192 z" stroke-width="0" stroke-linejoin="miter" stroke-miterlimit="2" fill="#80a260" stroke="#80a260" transform="translate(1.1368683772161603e-13 361.21200000000005) translate(618.9869374999998 66.792) scale(0.75) translate(-648.22525 14.816)"/>
      </g>
      <g id="title" style="font-style:normal;font-weight:700;font-size:72px;line-height:1;font-family:'Comfortaa Bold Alt1';font-variant-ligatures:none;text-align:center;text-anchor:middle" transform="translate(0 0)">
        <path id="path151131" style="font-style:normal;font-weight:700;font-size:72px;line-height:1;font-family:'Comfortaa Bold Alt1';font-variant-ligatures:none;text-align:center;text-anchor:middle" d="m 394.56462,-55.152 c -0.792,-0.72 -1.65599,-1.08 -2.664,-1.008 -1.44,0 -2.52,0.648 -3.312,1.872 0,0.072 0,0.072 0,0.144 -0.072,0 -0.072,0.072 -0.072,0.072 l -18.864,38.808 c -0.36,0.792 -1.00799,1.152 -1.944,1.224 -0.864,0 -1.512,-0.432 -1.94399,-1.224 l -19.36801,-38.88 c 0,0 -0.072,-0.072 -0.072,-0.072 -0.79201,-1.296 -1.87201,-2.016 -3.24,-2.016 -1.08001,0 -1.94401,0.36 -2.66401,1.08 -0.72,0.72 -1.08,1.656 -1.08,2.664 v 48.744 c 0,1.08 0.36,1.944 1.08,2.664 0.72,0.72 1.584,1.08 2.66401,1.08 1.00799,0 1.94399,-0.36 2.66399,-1.08 0.72,-0.72 1.08,-1.584 1.08,-2.664 v -25.92 c 0,-1.152 0.504,-1.8 1.656,-2.088 1.08,-0.288 1.872,0.144 2.44801,1.152 l 13.104,26.208 c 0.71999,1.512 1.872,2.232 3.45599,2.232 1.29601,0 2.304,-0.576 3.096,-1.728 0.072,-0.072 0.144,-0.144 0.144,-0.216 l 13.248,-27 c 0.504,-1.08 1.368,-1.44 2.448,-1.152 1.152,0.216 1.72801,0.936 1.72801,2.088 v 26.424 c 0,1.08 0.35999,1.944 1.07999,2.664 0.72001,0.72 1.584,1.08 2.664,1.08 1.00801,0 1.872,-0.36 2.592,-1.08 0.72,-0.72 1.15201,-1.584 1.15201,-2.664 v -48.744 c 0,-1.008 -0.36001,-1.944 -1.08001,-2.664 z" stroke-width="0" stroke-linejoin="miter" stroke-miterlimit="2" fill="#354127" stroke="#354127" transform="translate(0 291.526) translate(281.37593125 35.94200000000001) scale(1.25) translate(-339.34061 56.232)"/>
        <path id="path151133" style="font-style:normal;font-weight:700;font-size:72px;line-height:1;font-family:'Comfortaa Bold Alt1';font-variant-ligatures:none;text-align:center;text-anchor:middle" d="m 437.363,-37.08 c -3.024,-1.728 -6.408,-2.592 -10.152,-2.592 -3.888,0 -7.272,0.864 -10.296,2.592 -3.024,1.728 -5.4,4.032 -7.056,7.056 -1.728,3.024 -2.52,6.48 -2.52,10.368 0,3.888 0.792,7.272 2.52,10.296 1.656,3.024 4.032,5.4 7.056,7.128 3.024,1.728 6.408,2.52 10.296,2.52 3.816,0 7.2,-0.792 10.224,-2.52 3.024,-1.728 5.328,-4.104 7.056,-7.128 1.656,-3.024 2.52,-6.408 2.52,-10.296 0,-3.888 -0.864,-7.344 -2.592,-10.368 -1.728,-3.024 -4.032,-5.328 -7.056,-7.056 z m -16.776,5.616 c 1.944,-1.152 4.176,-1.728 6.624,-1.728 2.448,0 4.608,0.576 6.552,1.728 1.944,1.152 3.456,2.808 4.536,4.824 1.08,2.088 1.656,4.392 1.656,6.984 0,2.592 -0.576,4.968 -1.656,6.984 -1.08,2.016 -2.592,3.6 -4.536,4.752 -1.944,1.152 -4.104,1.728 -6.552,1.728 -2.448,0 -4.68,-0.576 -6.624,-1.728 -1.944,-1.152 -3.456,-2.736 -4.536,-4.752 -1.152,-2.016 -1.656,-4.392 -1.656,-6.984 0,-2.592 0.504,-4.896 1.656,-6.984 1.08,-2.016 2.592,-3.672 4.536,-4.824 z" stroke-width="0" stroke-linejoin="miter" stroke-miterlimit="2" fill="#404f2f" stroke="#404f2f" transform="translate(0 291.526) translate(370.12391875 56.642) scale(1.25) translate(-407.339 39.672)"/>
        <path id="path151135" style="font-style:normal;font-weight:700;font-size:72px;line-height:1;font-family:'Comfortaa Bold Alt1';font-variant-ligatures:none;text-align:center;text-anchor:middle" d="m 483.28325,-38.664 c -1.44,-0.72 -3.456,-1.152 -5.976,-1.152 -2.448,0 -4.68,0.504 -6.768,1.44 -2.16,1.008 -3.888,2.304 -5.328,3.96 v -1.368 c 0,-2.376 -1.224,-3.6 -3.6,-3.6 -1.152,0 -2.088,0.36 -2.664,0.936 -0.648,0.648 -0.936,1.512 -0.936,2.664 V -3.6 c 0,1.224 0.288,2.16 0.936,2.736 0.576,0.576 1.512,0.864 2.664,0.864 1.152,0 2.088,-0.288 2.664,-0.936 0.576,-0.576 0.936,-1.512 0.936,-2.664 v -21.024 c 0,-2.664 1.008,-4.824 3.168,-6.408 2.088,-1.584 4.896,-2.376 8.352,-2.376 1.152,0 2.736,0.216 4.68,0.504 0.432,0.144 0.792,0.144 1.08,0.144 1.44,0 2.448,-0.72 2.88,-2.304 0,-0.144 0.072,-0.36 0.072,-0.72 0,-1.152 -0.72,-2.088 -2.16,-2.88 z" stroke-width="0" stroke-linejoin="miter" stroke-miterlimit="2" fill="#4a5d37" stroke="#4a5d37" transform="translate(0 291.526) translate(437.21423125 56.461999999999996) scale(1.25) translate(-458.01125 39.816)"/>
        <path id="path151137" style="font-style:normal;font-weight:700;font-size:72px;line-height:1;font-family:'Comfortaa Bold Alt1';font-variant-ligatures:none;text-align:center;text-anchor:middle" d="m 494.75488,-38.376 c -0.72001,0.72 -1.00801,1.584 -1.00801,2.664 v 32.04 c 0,1.08 0.288,1.944 1.00801,2.664 0.71999,0.72 1.584,1.008 2.664,1.008 1.07999,0 1.94399,-0.288 2.66399,-1.008 0.64801,-0.72 1.008,-1.584 1.008,-2.664 v -32.04 c 0,-1.08 -0.35999,-1.944 -1.008,-2.664 -0.72,-0.648 -1.584,-1.008 -2.66399,-1.008 -1.08,0 -1.94401,0.36 -2.664,1.008 z" stroke-width="0" stroke-linejoin="miter" stroke-miterlimit="2" fill="#556b3f" stroke="#556b3f" transform="translate(0 291.526) translate(485.63375625 57.001999999999995) scale(1.25) translate(-493.74687 39.384)"/>
        <path id="path151139" style="font-style:normal;font-weight:700;font-size:72px;line-height:1;font-family:'Comfortaa Bold Alt1';font-variant-ligatures:none;text-align:center;text-anchor:middle" d="m 545.35175,-3.024 c 0,-0.864 -0.288,-1.584 -0.792,-2.16 l -13.968,-17.136 13.248,-11.808 c 0.72,-0.576 1.152,-1.44 1.152,-2.448 0,-0.864 -0.36,-1.584 -0.936,-2.232 -0.648,-0.72 -1.44,-1.152 -2.448,-1.152 -0.864,0 -1.656,0.36 -2.232,0.936 l -17.496,15.624 v -29.304 c 0,-1.008 -0.36,-1.872 -1.008,-2.52 -0.648,-0.648 -1.512,-1.008 -2.52,-1.008 -1.08,0 -1.944,0.36 -2.592,1.008 -0.648,0.648 -0.936,1.512 -0.936,2.52 v 49.176 c 0,1.08 0.288,1.944 0.936,2.592 0.648,0.648 1.512,0.936 2.592,0.936 1.008,0 1.872,-0.288 2.52,-0.936 0.648,-0.648 1.008,-1.512 1.008,-2.592 v -11.016 l 3.6,-3.168 13.68,16.92 c 0.648,0.864 1.512,1.296 2.592,1.296 0.792,0 1.584,-0.288 2.304,-0.864 0.864,-0.72 1.296,-1.584 1.296,-2.664 z" stroke-width="0" stroke-linejoin="miter" stroke-miterlimit="2" fill="#607848" stroke="#607848" transform="translate(0 291.526) translate(515.72985625 35.94200000000001) scale(1.25) translate(-514.82375 56.232)"/>
        <path id="path151141" style="font-style:normal;font-weight:700;font-size:72px;line-height:1;font-family:'Comfortaa Bold Alt1';font-variant-ligatures:none;text-align:center;text-anchor:middle" d="m 589.74537,-19.656 c 0,-3.672 -0.93599,-7.128 -2.664,-10.152 -1.72799,-3.024 -4.10399,-5.472 -7.12799,-7.2 -3.024,-1.728 -6.336,-2.664 -10.008,-2.664 -3.74401,0 -7.12801,0.936 -10.15201,2.664 -3.024,1.728 -5.4,4.176 -7.12799,7.2 -1.72801,3.024 -2.592,6.408 -2.592,10.152 0,3.744 0.79199,7.2 2.376,10.224 1.58399,3.024 3.81599,5.4 6.624,7.128 2.88,1.8 5.976,2.664 9.43199,2.664 h 0.576 17.20801 c 0.93599,0 1.728,-0.36 2.448,-1.008 0.64799,-0.648 1.00799,-1.44 1.00799,-2.448 V -3.6 Z m -30.95999,6.912 c -1.15201,-2.016 -1.65601,-4.32 -1.65601,-6.912 0,-2.52 0.504,-4.824 1.65601,-6.912 1.15199,-2.016 2.664,-3.672 4.60799,-4.824 1.944,-1.152 4.10401,-1.8 6.55201,-1.8 2.37599,0 4.53599,0.648 6.48,1.8 1.94399,1.152 3.456,2.808 4.60799,4.824 1.08001,2.088 1.65601,4.392 1.65601,6.912 0,2.592 -0.576,4.896 -1.65601,6.912 -1.15199,2.016 -2.664,3.672 -4.60799,4.824 -1.94401,1.152 -4.10401,1.728 -6.48,1.728 -2.448,0 -4.60801,-0.576 -6.55201,-1.728 -1.94399,-1.152 -3.456,-2.808 -4.60799,-4.824 z" stroke-width="0" stroke-linejoin="miter" stroke-miterlimit="2" fill="#6b8650" stroke="#6b8650" transform="translate(0 291.526) translate(563.54189375 56.642) scale(1.25) translate(-550.07338 39.672)"/>
        <path id="path151143" style="font-style:normal;font-weight:700;font-size:72px;line-height:1;font-family:'Comfortaa Bold Alt1';font-variant-ligatures:none;text-align:center;text-anchor:middle" d="m 642.70025,-38.592 c -0.504,-0.504 -1.224,-0.792 -2.232,-0.792 -1.872,0 -3.096,1.152 -3.744,3.312 l -7.92,24.768 -6.48,-25.344 c -0.288,-0.792 -0.72,-1.44 -1.296,-1.944 -0.576,-0.504 -1.368,-0.792 -2.232,-0.792 -1.008,0 -1.8,0.288 -2.376,0.792 -0.576,0.504 -1.008,1.152 -1.224,1.944 l -7.344,24.84 -7.776,-24.264 c -0.432,-1.152 -0.936,-1.944 -1.512,-2.52 -0.576,-0.504 -1.368,-0.792 -2.232,-0.792 -2.016,0 -3.024,1.008 -3.024,3.024 0,0.72 0.072,1.44 0.288,2.016 l 10.656,31.968 c 0.216,0.72 0.648,1.296 1.296,1.728 0.648,0.432 1.368,0.648 2.16,0.648 0.72,0 1.44,-0.216 2.088,-0.648 0.648,-0.432 1.08,-1.008 1.368,-1.728 l 7.416,-26.136 7.056,26.136 c 0.144,0.72 0.576,1.296 1.224,1.728 0.648,0.432 1.368,0.648 2.232,0.648 0.72,0 1.44,-0.216 2.088,-0.648 0.576,-0.432 1.008,-1.008 1.296,-1.728 l 10.656,-31.968 c 0.216,-0.576 0.36,-1.296 0.36,-2.088 0,-0.864 -0.288,-1.584 -0.792,-2.16 z" stroke-width="0" stroke-linejoin="miter" stroke-miterlimit="2" fill="#759458" stroke="#759458" transform="translate(0 291.526) translate(621.3354812499999 57.001999999999995) scale(1.25) translate(-593.30825 39.384)"/>
        <path id="path151145" style="font-style:normal;font-weight:700;font-size:72px;line-height:1;font-family:'Comfortaa Bold Alt1';font-variant-ligatures:none;text-align:center;text-anchor:middle" d="m 687.33912,-19.656 c 0,-3.672 -0.93599,-7.128 -2.664,-10.152 -1.72799,-3.024 -4.10399,-5.472 -7.12799,-7.2 -3.024,-1.728 -6.336,-2.664 -10.008,-2.664 -3.74401,0 -7.12801,0.936 -10.15201,2.664 -3.024,1.728 -5.4,4.176 -7.12799,7.2 -1.72801,3.024 -2.592,6.408 -2.592,10.152 0,3.744 0.79199,7.2 2.376,10.224 1.58399,3.024 3.81599,5.4 6.624,7.128 2.88,1.8 5.976,2.664 9.43199,2.664 h 0.576 17.20801 c 0.93599,0 1.728,-0.36 2.448,-1.008 0.64799,-0.648 1.00799,-1.44 1.00799,-2.448 V -3.6 Z m -30.95999,6.912 c -1.15201,-2.016 -1.65601,-4.32 -1.65601,-6.912 0,-2.52 0.504,-4.824 1.65601,-6.912 1.15199,-2.016 2.664,-3.672 4.60799,-4.824 1.944,-1.152 4.10401,-1.8 6.55201,-1.8 2.37599,0 4.53599,0.648 6.48,1.8 1.94399,1.152 3.456,2.808 4.60799,4.824 1.08001,2.088 1.65601,4.392 1.65601,6.912 0,2.592 -0.576,4.896 -1.65601,6.912 -1.15199,2.016 -2.664,3.672 -4.60799,4.824 -1.94401,1.152 -4.10401,1.728 -6.48,1.728 -2.448,0 -4.60801,-0.576 -6.55201,-1.728 -1.94399,-1.152 -3.456,-2.808 -4.60799,-4.824 z" stroke-width="0" stroke-linejoin="miter" stroke-miterlimit="2" fill="#80a260" stroke="#80a260" transform="translate(0 291.526) translate(693.03408125 56.642) scale(1.25) translate(-647.66713 39.672)"/>
      </g>
      <image xlink:href="" id="icon" x="0" y="0" style="display: none;"/>
    </g>
  </g>
</svg>